<svg width="100" height="100" viewBox="0 0 100 100" fill="none" xmlns="http://www.w3.org/2000/svg">
<path d="M27.6756 86.8352C28.5915 88.0889 29.6885 88.9844 30.9703 89.7008C37.3739 93.2829 48.3522 89.8799 65.0021 80.3874C81.8369 70.8967 90.2534 63.3744 90.4363 56.2103C90.4363 55.1365 90.2534 54.2401 89.8874 53.1664C79.2742 67.3147 43.7775 84.8659 27.6756 86.8352ZM29.1404 11.6171C43.5946 14.1245 80.007 33.8241 89.8874 46.8987C90.2534 46.0023 90.2534 44.9285 90.4363 44.0321C90.4363 36.8689 82.2029 29.1683 65.186 19.6758C48.5352 10.3634 37.7399 6.78129 31.1533 10.3634C30.4213 10.7216 29.8715 11.0798 29.1404 11.6171ZM17.6123 12.8699C19.8081 11.6171 22.5529 11.0798 25.4807 11.2589C26.7616 9.64695 28.0416 8.57233 29.6885 7.67681C37.1909 3.55832 49.0841 7.14039 66.649 17.1693C84.5808 27.3773 93.5462 35.6152 93.5462 44.2112C93.5462 46.1814 92.9972 48.1515 92.0832 50.1216C93.1802 52.0918 93.5462 54.2401 93.5462 56.2103C93.5462 64.6272 84.3978 72.8669 66.649 82.8958C48.9012 92.9247 37.1909 96.5059 29.5055 92.2074C27.4936 91.1337 25.6637 89.3426 24.1989 87.0143C21.638 87.0143 19.4422 86.2979 17.4293 85.2232C9.92778 81.1048 7 69.463 7 49.047C7 28.6301 10.1117 16.9902 17.6123 12.8699ZM23.6509 14.1245C22.004 14.3036 20.358 14.661 19.0762 15.3783C12.6726 18.9603 10.1117 29.7056 10.1117 49.047C10.1117 68.2093 12.4896 79.1346 19.0762 82.7167C20.1741 83.2531 21.455 83.7904 22.9189 83.9695C15.9654 70.3586 15.9654 27.0191 23.6509 14.1245ZM31.1533 22.3624C18.7111 29.1683 18.7111 70.7176 30.9703 77.5227C43.7775 84.6868 78.3602 59.9714 78.3602 49.2261C78.5431 35.257 43.2295 15.7365 31.1533 22.3624Z" fill="#699C39"/>
<path d="M54.9197 43.6124C54.3088 43.6124 53.8145 43.1268 53.8145 42.5289V36.5249C53.8145 35.927 54.0994 33.1915 54.7103 33.1915C55.3211 33.1915 56.0249 35.927 56.0249 36.5249V42.5289C56.0249 43.1268 55.5305 43.6124 54.9197 43.6124Z" fill="#699C39"/>
<path d="M48.0618 55.6792L55.2092 48.4892H63.1231C64.0854 48.4892 64.5688 49.6262 63.8915 50.2945L48.0618 65.9068L32.2312 50.2945C31.5538 49.6262 32.0373 48.4892 32.9995 48.4892H40.9135L48.0618 55.6792Z" fill="#83BE4C"/>
<path d="M65.1422 48.7246C64.8016 47.9242 64.0091 47.4068 63.1231 47.4068H55.2089C54.9104 47.4068 54.6247 47.5249 54.4165 47.7343L48.0611 54.1273L42.3084 48.3406V36.5247C42.3084 35.9271 41.8135 35.4426 41.2029 35.4426C40.5922 35.4426 40.0973 35.9271 40.0973 36.5247V47.4069H32.9992C32.1132 47.4069 31.3207 47.9241 30.98 48.7247C30.6394 49.5252 30.8225 50.4402 31.4466 51.0558L47.2765 66.6691C47.484 66.8738 47.7666 66.9889 48.0612 66.9889C48.3558 66.9889 48.6384 66.8738 48.8459 66.6691L64.6757 51.0558C65.2998 50.4401 65.4829 49.5251 65.1422 48.7246ZM48.0612 64.3705L33.0568 49.571H40.4466L47.2689 56.4336C47.477 56.643 47.7627 56.761 48.0612 56.761C48.3597 56.761 48.6455 56.643 48.8536 56.4336L55.6758 49.571L63.0658 49.5712L48.0612 64.3705Z" fill="#699C39"/>
<path d="M48.0613 50.2601C47.4508 50.2601 46.9557 49.7757 46.9557 49.178V38.8707C46.9557 38.2731 47.4507 37.7886 48.0613 37.7886C48.6719 37.7886 49.1669 38.273 49.1669 38.8707V49.178C49.1669 49.7757 48.6719 50.2601 48.0613 50.2601Z" fill="#699C39"/>
</svg>
