<?xml version="1.0" encoding="utf-8"?>
<svg viewBox="0 0 500 500" xmlns="http://www.w3.org/2000/svg">
  <defs>
    <linearGradient gradientUnits="userSpaceOnUse" x1="71.699" y1="-12.657" x2="71.699" y2="86.098" id="gradient-0" gradientTransform="matrix(0.926771, 0.375628, -0.362882, 0.895323, 29.831936, -36.067487)">
      <stop offset="0" style="stop-color: rgb(153, 246, 228);"/>
      <stop offset="1" style="stop-color: rgb(74, 222, 128);"/>
    </linearGradient>
    <linearGradient gradientUnits="userSpaceOnUse" x1="76.803" y1="20.386" x2="76.803" y2="29.554" id="gradient-1">
      <stop offset="0" style="stop-color: rgb(153, 246, 228);"/>
      <stop offset="1" style="stop-color: rgb(74, 222, 128);"/>
    </linearGradient>
    <linearGradient gradientUnits="userSpaceOnUse" x1="69.27" y1="35.027" x2="69.27" y2="54.574" id="gradient-2" gradientTransform="matrix(0.999953, -0.00958, 0.011753, 1.226685, -0.016706, -11.459026)">
      <stop offset="0" style="stop-color: rgb(153, 246, 228);"/>
      <stop offset="1" style="stop-color: rgb(11, 159, 65);"/>
    </linearGradient>
    <linearGradient gradientUnits="userSpaceOnUse" x1="256.001" y1="16.846" x2="256.001" y2="495.156" id="gradient-3" gradientTransform="matrix(0.999979, -0.006497, 0.007021, 1.080751, -3.471473, -38.320815)">
      <stop offset="0" style="stop-color: rgb(153, 246, 228);"/>
      <stop offset="1" style="stop-color: rgb(124, 228, 121);"/>
    </linearGradient>
    <linearGradient gradientUnits="userSpaceOnUse" x1="256.002" y1="52.415" x2="256.002" y2="241.51" id="gradient-4">
      <stop offset="0" style="stop-color: rgb(153, 246, 228);"/>
      <stop offset="1" style="stop-color: rgb(74, 222, 128);"/>
    </linearGradient>
  </defs>
  <g id="g5" style="fill: rgb(105, 156, 57); fill-opacity: 1;" transform="matrix(4.607843, 0, 0, 4.607843, -86.629524, 82.891953)">
    <g id="g3767" transform="translate(1.5258789e-6,-6.5591486e-8)">
      <g id="g3762">
        <path class="st0" d="M 46.877 78.061 C 47.883 79.468 49.088 80.473 50.496 81.277 C 57.53 85.297 69.589 81.478 87.878 70.825 C 106.37 60.174 115.615 51.732 115.816 43.692 C 115.816 42.487 115.615 41.481 115.213 40.276 C 103.555 56.154 64.564 75.851 46.877 78.061 M 48.486 -6.353 C 64.363 -3.539 104.36 18.569 115.213 33.242 C 115.615 32.236 115.615 31.031 115.816 30.025 C 115.816 21.986 106.772 13.344 88.08 2.691 C 69.79 -7.76 57.932 -11.78 50.697 -7.76 C 49.893 -7.358 49.289 -6.956 48.486 -6.353 Z M 35.823 -4.947 C 38.235 -6.353 41.25 -6.956 44.466 -6.755 C 45.873 -8.564 47.279 -9.77 49.088 -10.775 C 57.329 -15.397 70.393 -11.377 89.687 -0.122 C 109.384 11.334 119.232 20.579 119.232 30.226 C 119.232 32.437 118.629 34.648 117.625 36.859 C 118.83 39.07 119.232 41.481 119.232 43.692 C 119.232 53.138 109.183 62.385 89.687 73.64 C 70.192 84.895 57.329 88.914 48.887 84.09 C 46.677 82.885 44.667 80.875 43.058 78.262 C 40.245 78.262 37.833 77.458 35.622 76.252 C 27.382 71.63 24.166 58.565 24.166 35.653 C 24.166 12.74 27.584 -0.323 35.823 -4.947 Z M 42.456 -3.539 C 40.647 -3.338 38.839 -2.937 37.431 -2.132 C 30.397 1.888 27.584 13.947 27.584 35.653 C 27.584 57.158 30.196 69.419 37.431 73.439 C 38.637 74.041 40.044 74.644 41.652 74.845 C 34.014 59.57 34.014 10.932 42.456 -3.539 Z M 50.697 5.706 C 37.03 13.344 37.03 59.973 50.496 67.61 C 64.564 75.65 102.551 47.913 102.551 35.854 C 102.752 20.177 63.962 -1.73 50.697 5.706 Z" id="path7" style="fill-opacity: 1; fill: url(#gradient-0);"/>
        <path style="fill: url(#gradient-1);" d="M 76.803 29.554 C 76.132 29.554 75.589 29.009 75.589 28.338 L 75.589 21.6 C 75.589 20.929 76.132 20.386 76.803 20.386 C 77.474 20.386 78.017 20.929 78.017 21.6 L 78.017 28.338 C 78.017 29.009 77.474 29.554 76.803 29.554 Z"/>
        <path style="fill: url(#gradient-2);" d="M 69.27 43.096 L 77.121 35.027 L 85.814 35.027 C 86.871 35.027 87.402 36.303 86.658 37.053 L 69.27 54.574 L 51.881 37.053 C 51.137 36.303 51.668 35.027 52.725 35.027 L 61.418 35.027 L 69.27 43.096 Z"/>
        <g transform="matrix(0.074017, 0, 0, 0.074017, 50.320904, 19.138502)" style="">
          <path style="fill: url(#gradient-3);" d="M509.491,218.229c-5.055-12.136-16.817-19.98-29.965-19.98h-117.45c-4.43,0-8.669,1.79-11.759,4.965 L256,300.146l-85.372-87.739V33.253c0-9.061-7.345-16.407-16.407-16.407s-16.407,7.345-16.407,16.407v164.997H32.475 c-13.148,0-24.91,7.842-29.965,19.98c-5.055,12.138-2.338,26.011,6.924,35.345l234.922,236.731c3.08,3.104,7.273,4.85,11.645,4.85 s8.566-1.746,11.645-4.85l234.922-236.731C511.829,244.24,514.547,230.367,509.491,218.229z M256.002,455.454L33.33,231.063 h109.668l101.245,104.051c3.088,3.175,7.329,4.965,11.759,4.965s8.671-1.79,11.759-4.965l101.244-104.051l109.67,0.003 L256.002,455.454z"/>
          <path style="fill: url(#gradient-4);" d="M256.002,241.51c-9.061,0-16.407-7.345-16.407-16.407V68.822c0-9.061,7.345-16.407,16.407-16.407 s16.407,7.345,16.407,16.407v156.281C272.409,234.165,265.063,241.51,256.002,241.51z"/>
        </g>
        <g transform="matrix(0.074017, 0, 0, 0.074017, 50.320904, 19.138502)" style=""/>
        <g transform="matrix(0.074017, 0, 0, 0.074017, 50.320904, 19.138502)" style=""/>
        <g transform="matrix(0.074017, 0, 0, 0.074017, 50.320904, 19.138502)" style=""/>
        <g transform="matrix(0.074017, 0, 0, 0.074017, 50.320904, 19.138502)" style=""/>
        <g transform="matrix(0.074017, 0, 0, 0.074017, 50.320904, 19.138502)" style=""/>
        <g transform="matrix(0.074017, 0, 0, 0.074017, 50.320904, 19.138502)" style=""/>
        <g transform="matrix(0.074017, 0, 0, 0.074017, 50.320904, 19.138502)" style=""/>
        <g transform="matrix(0.074017, 0, 0, 0.074017, 50.320904, 19.138502)" style=""/>
        <g transform="matrix(0.074017, 0, 0, 0.074017, 50.320904, 19.138502)" style=""/>
        <g transform="matrix(0.074017, 0, 0, 0.074017, 50.320904, 19.138502)" style=""/>
        <g transform="matrix(0.074017, 0, 0, 0.074017, 50.320904, 19.138502)" style=""/>
        <g transform="matrix(0.074017, 0, 0, 0.074017, 50.320904, 19.138502)" style=""/>
        <g transform="matrix(0.074017, 0, 0, 0.074017, 50.320904, 19.138502)" style=""/>
        <g transform="matrix(0.074017, 0, 0, 0.074017, 50.320904, 19.138502)" style=""/>
        <g transform="matrix(0.074017, 0, 0, 0.074017, 50.320904, 19.138502)" style=""/>
      </g>
    </g>
  </g>
</svg>